<?xml version="1.0" standalone="no"?>
<!DOCTYPE svg PUBLIC "-//W3C//DTD SVG 20010904//EN"
 "http://www.w3.org/TR/2001/REC-SVG-20010904/DTD/svg10.dtd">
<svg version="1.0" xmlns="http://www.w3.org/2000/svg"
 width="24.000000pt" height="24.000000pt" viewBox="0 0 24.000000 24.000000"
 preserveAspectRatio="xMidYMid meet">

<g transform="translate(0.000000,24.000000) scale(0.100000,-0.100000)"
fill="#000000" stroke="none">
<path d="M90 180 c0 -35 -3 -40 -22 -40 -21 0 -19 -3 15 -37 l37 -38 37 38
c34 34 36 37 15 37 -19 0 -22 5 -22 40 0 38 -2 40 -30 40 -28 0 -30 -2 -30
-40z m42 -26 c3 -44 -3 -61 -20 -50 -10 6 -2 96 8 96 4 0 10 -21 12 -46z"/>
<path d="M20 30 c0 -6 40 -10 100 -10 60 0 100 4 100 10 0 6 -40 10 -100 10
-60 0 -100 -4 -100 -10z"/>
</g>
</svg>
