<svg xmlns="http://www.w3.org/2000/svg" width="24" height="24" enable-background="new 0 0 24 24" viewBox="0 0 24 24"><path d="M1 11c-.552 0-1-.448-1-1V1c0-.552.448-1 1-1h9c.552 0 1 .448 1 1s-.448 1-1 1H2v8C2 10.552 1.552 11 1 11zM10 24H1c-.552 0-1-.448-1-1v-9c0-.552.448-1 1-1s1 .448 1 1v8h8c.552 0 1 .448 1 1S10.552 24 10 24zM23 11c-.552 0-1-.448-1-1V2h-8c-.552 0-1-.448-1-1s.448-1 1-1h9c.552 0 1 .448 1 1v9C24 10.552 23.552 11 23 11zM23 24h-9c-.552 0-1-.448-1-1s.448-1 1-1h8v-8c0-.552.448-1 1-1s1 .448 1 1v9C24 23.552 23.552 24 23 24z"/></svg>