<?xml version="1.0" standalone="no"?>
<!DOCTYPE svg PUBLIC "-//W3C//DTD SVG 20010904//EN"
 "http://www.w3.org/TR/2001/REC-SVG-20010904/DTD/svg10.dtd">
<svg version="1.0" xmlns="http://www.w3.org/2000/svg"
 width="128.000000pt" height="128.000000pt" viewBox="0 0 128.000000 128.000000"
 preserveAspectRatio="xMidYMid meet">

<g transform="translate(0.000000,128.000000) scale(0.100000,-0.100000)"
fill="#000000" stroke="none">
<path d="M1091 1180 c-47 -72 -135 -146 -227 -191 -92 -45 -100 -46 -109 -19
-3 11 -12 20 -20 20 -7 0 -27 11 -43 25 -17 14 -32 25 -34 25 -3 0 -17 -19
-32 -42 -15 -24 -48 -59 -74 -77 -80 -59 -93 -73 -81 -87 7 -8 19 -10 40 -4
26 8 29 6 29 -13 0 -13 -7 -33 -16 -45 -13 -20 -13 -22 0 -22 8 0 20 -9 25
-19 6 -10 24 -24 41 -29 25 -9 30 -16 30 -45 0 -23 -8 -41 -24 -56 l-25 -23
-35 55 c-22 33 -33 62 -30 72 7 16 -20 44 -42 45 -6 0 -22 -9 -35 -21 -24 -20
-24 -20 -37 -1 -11 17 -17 18 -47 9 -23 -7 -35 -17 -35 -28 0 -14 -26 -23
-138 -49 -145 -34 -164 -42 -144 -62 9 -9 44 -5 157 21 85 19 150 29 159 24 7
-4 42 -46 76 -92 l62 -83 41 5 c23 2 50 8 60 12 15 6 17 0 17 -66 1 -93 23
-256 38 -271 8 -8 34 -8 94 0 97 12 138 26 138 46 0 7 -20 50 -45 94 l-45 81
10 68 c5 37 11 86 13 108 l2 40 13 -42 c7 -23 21 -92 32 -155 21 -114 69 -238
93 -238 7 0 61 32 121 71 l110 71 -33 25 c-18 14 -71 84 -118 155 -102 156
-157 202 -266 222 l-39 7 26 24 c30 28 37 84 10 81 -26 -2 -28 22 -2 26 24 3
25 9 13 64 -7 30 -6 31 40 43 143 36 268 141 314 264 15 39 9 34 -28 -23z
m-394 -208 c13 -9 25 -31 29 -48 l6 -31 -76 0 -76 0 43 48 c23 26 44 47 47 48
3 0 15 -7 27 -17z m-20 -134 c6 -7 15 -29 22 -48 9 -28 9 -35 -4 -42 -26 -15
-17 -54 25 -104 38 -46 40 -52 39 -114 0 -36 -4 -87 -9 -115 -8 -47 -6 -54 35
-132 50 -93 52 -89 -54 -99 -60 -6 -69 -5 -75 12 -15 36 -19 318 -7 403 15 98
9 118 -35 137 -31 13 -34 18 -34 57 0 24 3 47 7 50 11 12 80 8 90 -5z m-188
-216 c13 -31 25 -63 28 -69 12 -31 -29 -9 -71 38 -49 55 -56 75 -28 82 41 11
47 6 71 -51z m420 -56 c18 -17 62 -76 98 -131 36 -55 74 -109 84 -121 23 -24
32 -14 -84 -88 l-58 -37 -20 47 c-12 26 -29 90 -40 143 -29 151 -38 194 -45
221 -7 23 -6 24 12 11 10 -8 34 -29 53 -45z"/>
</g>
</svg>
